<svg width="304" height="80" viewBox="0 0 304 80" fill="none" xmlns="http://www.w3.org/2000/svg">
<g clip-path="url(#clip0_4012_1502)">
<path fill-rule="evenodd" clip-rule="evenodd" d="M29.5226 48.794H45.1005L67.7261 0H52.6884L40.9799 29.2462H40.7663L40.603 0H27.0854L15.6407 28.8317H15.5276L14.9246 0H0L3.5804 48.794H19.108L29.1457 22.7387H29.3593L29.5226 48.794ZM105.591 0H68.191L59.9121 48.794H97.9774L100.101 36.2437H75.9297L76.9473 30.2136H98.995L100.967 18.5804H78.9196L79.9749 12.4874H103.467L105.591 0ZM108.668 0H122.613L116.432 36.2437H136.407L134.284 48.794H100.364L108.668 0ZM130.804 12.4874H143.153L136.972 48.7312H145.639L140.314 79.9996L164.649 35.5146H152.882L156.809 12.4874H169.208L171.331 0H132.927L130.804 12.4874ZM167.965 36.771L174.397 0.338867H303.882L283.97 36.771H167.965ZM200.565 10.7283H184.209L180.578 32.0726H197.236L198.166 26.5826H187.588L188.028 23.9444H197.676L198.543 18.8565H188.894L189.359 16.1932H199.636L200.565 10.7283ZM202.676 15.5272H208.229L208.203 16.9217H208.266C209.661 15.5021 211.269 14.9996 213.693 14.9996C216.495 14.9996 218.756 16.8212 218.103 20.6152L216.156 32.0599H210.201L211.683 23.3287C212.023 21.4066 212.023 20.0624 210.276 20.0624C209.246 20.0624 207.701 21.0925 207.261 23.7559L205.842 32.0599H199.874L202.676 15.5146V15.5272ZM231.897 15.5271H228.706L229.661 9.91157L223.053 13.6804L222.739 15.5271H220.666L219.95 19.7734H222.023L220.779 27.0221C220 31.6201 222.676 32.4618 225.214 32.4618C226.52 32.4618 227.902 32.2985 229.121 31.9593L229.812 27.8387C229.347 27.9769 228.882 28.0271 228.417 28.0271C226.897 28.0271 226.709 27.3236 226.96 25.791L227.99 19.7734H231.181L231.897 15.5271ZM246.96 26.6579C245.314 31.3312 242.312 32.4619 238.304 32.4619C233.518 32.4619 230.352 30.8036 231.545 23.7559C232.638 17.3237 236.52 14.9996 241.256 14.9996C245.992 14.9996 248.681 17.5875 247.714 23.7559C247.613 24.3086 247.462 24.9744 247.337 25.477H236.746C236.721 27.3488 237.487 28.1403 239.196 28.1403C240.251 28.1403 241.332 27.688 241.621 26.6579H246.96ZM251.129 15.5273H251.118L251.131 15.5147L251.129 15.5273ZM251.129 15.5273H256.633L256.533 17.374H256.595C257.613 16.1554 259.045 15.1002 261.382 15.1002C261.997 15.1002 262.538 15.2007 263.09 15.364L262.161 20.9293C261.595 20.6906 261.08 20.5022 259.887 20.5022C257.475 20.5022 256.005 21.9218 255.389 25.5399L254.296 32.06H248.329L251.129 15.5273ZM272.626 20.678L272.627 20.6654H278.015C278.442 16.0297 274.824 14.9996 271.558 14.9996C268.48 14.9996 264.171 15.791 263.417 20.3011C262.927 23.1528 264.724 24.6604 269.008 25.5523C271.646 26.08 272.085 26.3689 271.96 27.1353C271.822 27.977 270.829 28.2659 269.812 28.2659C268.606 28.2659 267.764 27.8765 267.977 26.394H262.274C261.482 31.3312 265.214 32.4619 268.907 32.4619C272.6 32.4619 276.859 31.4569 277.688 26.5825C278.153 23.8438 276.407 22.9267 274.523 22.2358C273.571 21.8994 272.564 21.6945 271.686 21.5157C270.826 21.3406 270.09 21.1907 269.648 20.9669C269.372 20.8287 269.07 20.59 269.158 20.2006C269.309 19.2835 270.151 19.0699 271.043 19.0699C271.932 19.0699 272.808 19.382 272.627 20.6654H272.613L272.626 20.678ZM237.4 21.7332H242.651C242.651 20.2508 242.085 19.5724 240.503 19.5724C238.92 19.5724 237.965 20.1252 237.4 21.7332Z" fill="#231916"/>
</g>
<defs>
<clipPath id="clip0_4012_1502">
<rect width="303.882" height="80" fill="white"/>
</clipPath>
</defs>
</svg>
