<svg width="16" height="16" viewBox="0 0 16 16" fill="none" xmlns="http://www.w3.org/2000/svg">
<path fill-rule="evenodd" clip-rule="evenodd" d="M1.6001 7.99995C1.6001 7.55812 1.95827 7.19995 2.4001 7.19995H13.6001C14.0419 7.19995 14.4001 7.55812 14.4001 7.99995C14.4001 8.44178 14.0419 8.79995 13.6001 8.79995H2.4001C1.95827 8.79995 1.6001 8.44178 1.6001 7.99995Z" fill="#4B5563"/>
<path fill-rule="evenodd" clip-rule="evenodd" d="M1.6001 3.99995C1.6001 3.55812 1.95827 3.19995 2.4001 3.19995H13.6001C14.0419 3.19995 14.4001 3.55812 14.4001 3.99995C14.4001 4.44178 14.0419 4.79995 13.6001 4.79995H2.4001C1.95827 4.79995 1.6001 4.44178 1.6001 3.99995Z" fill="#4B5563"/>
<path fill-rule="evenodd" clip-rule="evenodd" d="M1.6001 12C1.6001 11.5581 1.95827 11.2 2.4001 11.2H13.6001C14.0419 11.2 14.4001 11.5581 14.4001 12C14.4001 12.4418 14.0419 12.8 13.6001 12.8H2.4001C1.95827 12.8 1.6001 12.4418 1.6001 12Z" fill="#4B5563"/>
</svg>
