<svg width="24" height="24" viewBox="0 0 24 24" fill="none" xmlns="http://www.w3.org/2000/svg">
<path d="M7.2816 14.3702C7.37927 13.5615 7.71094 13.1088 8.33596 12.6446C9.23024 12.016 10.3473 12.3716 10.3473 12.3716V10.2621C10.6189 10.2552 10.8906 10.2713 11.1592 10.3102V13.0249C11.1592 13.0249 10.0425 12.6693 9.14818 13.2983C8.5235 13.7621 8.19115 14.2152 8.09382 15.0239C8.09077 15.463 8.17318 16.037 8.55266 16.5333C8.45884 16.4852 8.3632 16.4304 8.26576 16.3689C7.4298 15.8075 7.27753 14.9654 7.2816 14.3702ZM15.7717 6.36168C15.1565 5.68756 14.9239 5.00694 14.8398 4.52881H15.6137C15.6137 4.52881 15.4594 5.78247 16.5839 7.01533L16.5995 7.0319C16.2965 6.84125 16.0185 6.61622 15.7717 6.36168ZM19.4998 8.27289V10.933C19.4998 10.933 18.5122 10.8943 17.7814 10.7084C16.761 10.4483 16.1051 10.0495 16.1051 10.0495C16.1051 10.0495 15.652 9.76512 15.6154 9.7453V15.2384C15.6154 15.5442 15.5316 16.3081 15.2763 16.9451C14.9429 17.7785 14.4284 18.3256 14.3338 18.4374C14.3338 18.4374 13.7081 19.1768 12.6043 19.6748C11.6092 20.124 10.7356 20.1126 10.4745 20.124C10.4745 20.124 8.96437 20.1838 7.60547 19.3007C7.31162 19.106 7.03732 18.8856 6.78613 18.6422L6.79292 18.647C8.15215 19.5302 9.66196 19.4703 9.66196 19.4703C9.92343 19.459 10.797 19.4703 11.7917 19.0211C12.8945 18.5232 13.5213 17.7837 13.5213 17.7837C13.6149 17.6719 14.1317 17.1249 14.4637 16.2912C14.7184 15.6544 14.8028 14.8903 14.8028 14.5844V9.09198C14.8395 9.11213 15.2922 9.39653 15.2922 9.39653C15.2922 9.39653 15.9484 9.79568 16.9689 10.0554C17.7 10.2413 18.6872 10.28 18.6872 10.28V8.19553C19.025 8.27126 19.3129 8.29174 19.4998 8.27289Z" fill="#D4D4D4"/>
<path d="M18.6875 8.19553V10.2793C18.6875 10.2793 17.7003 10.2406 16.9692 10.0547C15.9487 9.7947 15.2925 9.39588 15.2925 9.39588C15.2925 9.39588 14.8398 9.11148 14.8032 9.09132V14.5851C14.8032 14.8909 14.7194 15.6551 14.464 16.2918C14.1307 17.1255 13.6162 17.6726 13.5216 17.7844C13.5216 17.7844 12.8955 18.5238 11.792 19.0218C10.7973 19.471 9.92374 19.4596 9.66227 19.471C9.66227 19.471 8.15247 19.5308 6.79323 18.6477L6.78645 18.6428C6.64294 18.5038 6.50786 18.3571 6.38187 18.2034C5.94812 17.6745 5.68224 17.0492 5.61543 16.8707C5.61532 16.87 5.61532 16.8692 5.61543 16.8684C5.50793 16.5584 5.28207 15.8137 5.31293 15.0924C5.36753 13.8199 5.81518 13.0389 5.93354 12.8432C6.247 12.3096 6.65469 11.8322 7.13847 11.4322C7.56537 11.0871 8.04926 10.8125 8.57027 10.6196C9.13351 10.3932 9.73664 10.2719 10.3473 10.2621V12.3716C10.3473 12.3716 9.23022 12.0173 8.33627 12.6446C7.71126 13.1088 7.37959 13.5615 7.28192 14.3702C7.27785 14.9654 7.43012 15.8075 8.2654 16.3692C8.36284 16.4309 8.45847 16.4858 8.5523 16.5337C8.69822 16.7233 8.87583 16.8886 9.07795 17.0228C9.8939 17.5393 10.5776 17.5754 11.4519 17.24C12.0348 17.0157 12.4737 16.5102 12.6771 15.9502C12.805 15.6005 12.8033 15.2485 12.8033 14.8844V4.52881H14.8381C14.9222 5.00694 15.1548 5.68756 15.77 6.36168C16.0168 6.61622 16.2947 6.84125 16.5978 7.0319C16.6874 7.12454 17.1452 7.58251 17.7329 7.86367C18.0368 8.009 18.3571 8.12035 18.6875 8.19553Z" fill="black"/>
<path d="M4.80566 16.2231V16.2248L4.85615 16.3616C4.85035 16.3457 4.83159 16.2973 4.80566 16.2231Z" fill="#989898"/>
<path d="M8.57051 10.6199C8.0495 10.8127 7.56561 11.0873 7.1387 11.4325C6.65477 11.8334 6.24718 12.3118 5.93411 12.8464C5.81576 13.0414 5.3681 13.8231 5.3135 15.0956C5.28264 15.8169 5.5085 16.5615 5.61601 16.8716C5.61589 16.8724 5.61589 16.8731 5.61601 16.8739C5.68383 17.0507 5.94869 17.6761 6.38244 18.2065C6.50844 18.3603 6.64352 18.507 6.78702 18.646C6.32723 18.3412 5.91716 17.9727 5.57023 17.5526C5.14021 17.0283 4.87501 16.4094 4.80583 16.2268C4.80574 16.2255 4.80574 16.2242 4.80583 16.2229V16.2206C4.69798 15.9108 4.47144 15.1658 4.50298 14.4436C4.55758 13.1711 5.00523 12.39 5.12359 12.1944C5.43657 11.6597 5.84417 11.1813 6.32818 10.7805C6.755 10.4352 7.23891 10.1606 7.75999 9.96788C8.08501 9.83863 8.42361 9.74328 8.76992 9.68348C9.29183 9.59616 9.82487 9.58859 10.3492 9.66105V10.2624C9.738 10.2719 9.13427 10.3933 8.57051 10.6199Z" fill="#989898"/>
<path d="M14.8399 4.52897H12.8051V14.8849C12.8051 15.2489 12.8051 15.6 12.6789 15.9507C12.4734 16.5104 12.0363 17.0158 11.4537 17.2401C10.579 17.5768 9.89535 17.5395 9.07974 17.023C8.87727 16.8894 8.69921 16.7246 8.55273 16.5354C9.24761 16.8907 9.86958 16.8845 10.6401 16.5881C11.2224 16.3638 11.6602 15.8584 11.865 15.2984C11.9932 14.9486 11.9915 14.5966 11.9915 14.2329V3.875H14.8012C14.8012 3.875 14.7697 4.13243 14.8399 4.52897ZM18.6876 7.6194V8.19569C18.3578 8.12039 18.038 8.00904 17.7347 7.86383C17.147 7.58267 16.6891 7.1247 16.5996 7.03206C16.7035 7.09744 16.8113 7.15691 16.9225 7.21018C17.637 7.55212 18.3407 7.65418 18.6876 7.6194Z" fill="#989898"/>
</svg>
